<svg width="1468" height="216" viewBox="0 0 1468 216" fill="none" xmlns="http://www.w3.org/2000/svg">
<path d="M105.276 216C85.6762 216 67.2762 212.8 50.0762 206.4C32.8762 199.8 17.9762 190.4 5.37617 178.2C2.37617 175.2 0.876173 171.8 0.876173 168C0.876173 163.6 2.87617 159.4 6.87617 155.4C10.0762 152.2 13.5762 150.6 17.3762 150.6C21.3762 150.6 26.1762 152.9 31.7762 157.5C41.1762 166.1 52.2762 172.8 65.0762 177.6C78.0762 182.2 91.4762 184.5 105.276 184.5C118.476 184.5 128.776 182.3 136.176 177.9C143.576 173.3 147.276 166.9 147.276 158.7C147.276 150.1 143.276 143.2 135.276 138C127.276 132.6 113.676 127.8 94.4762 123.6C64.2762 117 42.2762 108.3 28.4762 97.5C14.8762 86.7 8.07617 72.8 8.07617 55.8C8.07617 45 11.6762 35.4 18.8762 27C26.0762 18.4 36.0762 11.8 48.8762 7.19999C61.8762 2.39999 76.6762 -1.14441e-05 93.2762 -1.14441e-05C111.876 -1.14441e-05 128.376 3.09999 142.776 9.29999C157.376 15.3 168.476 23.8 176.076 34.8C178.676 39 179.976 42.6 179.976 45.6C179.776 50.6 177.276 54.9 172.476 58.5C169.876 60.3 166.876 61.2 163.476 61.2C157.276 61.2 152.176 58.8 148.176 54C142.376 47 134.576 41.5 124.776 37.5C115.176 33.5 104.676 31.5 93.2762 31.5C79.0762 31.5 67.9762 33.7 59.9762 38.1C52.1762 42.3 48.2762 48.2 48.2762 55.8C48.2762 63.4 52.0762 69.7 59.6762 74.7C67.4762 79.5 80.8762 84.1 99.8762 88.5C120.876 93.5 137.776 99.2 150.576 105.6C163.376 111.8 172.676 119.2 178.476 127.8C184.476 136.4 187.476 146.7 187.476 158.7C187.476 170.1 184.076 180.2 177.276 189C170.476 197.6 160.876 204.3 148.476 209.1C136.076 213.7 121.676 216 105.276 216ZM387.836 -1.14441e-05C393.836 -1.14441e-05 398.636 1.59999 402.236 4.8C405.836 7.99999 407.636 12.4 407.636 18V49.5C407.636 76.1 400.936 97.8 387.536 114.6C374.136 131.2 355.436 141.3 331.436 144.9V198C331.436 203.4 329.536 207.8 325.736 211.2C322.136 214.4 317.336 216 311.336 216C305.336 216 300.536 214.4 296.936 211.2C293.336 208 291.536 203.6 291.536 198V144.9C267.336 141.3 248.536 131.2 235.136 114.6C221.736 98 215.036 76.3 215.036 49.5V18C215.036 12.4 216.836 7.99999 220.436 4.8C224.036 1.59999 228.836 -1.14441e-05 234.836 -1.14441e-05C240.836 -1.14441e-05 245.636 1.69999 249.236 5.09999C253.036 8.29999 254.936 12.6 254.936 18V50.4C254.936 71.2 259.736 87.2 269.336 98.4C279.136 109.4 293.136 114.9 311.336 114.9C329.536 114.9 343.436 109.4 353.036 98.4C362.836 87.2 367.736 71.2 367.736 50.4V18C367.736 12.6 369.536 8.29999 373.136 5.09999C376.936 1.69999 381.836 -1.14441e-05 387.836 -1.14441e-05ZM456.649 216C450.649 216 445.849 214.4 442.249 211.2C438.649 208 436.849 203.6 436.849 198V84.9C436.849 58.3 445.149 37.5 461.749 22.5C478.349 7.49999 501.349 -1.14441e-05 530.749 -1.14441e-05C560.149 -1.14441e-05 583.149 7.49999 599.749 22.5C616.349 37.5 624.649 58.3 624.649 84.9V198C624.649 203.6 622.849 208 619.249 211.2C615.649 214.4 610.849 216 604.849 216C598.849 216 593.949 214.4 590.149 211.2C586.549 207.8 584.749 203.4 584.749 198V84C584.749 67 580.149 54 570.949 45C561.749 36 548.349 31.5 530.749 31.5C513.149 31.5 499.749 36 490.549 45C481.349 54 476.749 67 476.749 84V198C476.749 203.4 474.849 207.8 471.049 211.2C467.449 214.4 462.649 216 456.649 216ZM674.911 215.7C668.911 215.7 664.111 214.1 660.511 210.9C656.911 207.7 655.111 203.3 655.111 197.7V92.7C655.111 63.7 663.411 41 680.011 24.6C696.611 8.19999 719.711 -1.14441e-05 749.311 -1.14441e-05C768.711 -1.14441e-05 785.511 3.69999 799.711 11.1C813.911 18.5 824.711 29.2 832.111 43.2C839.711 57.2 843.511 73.7 843.511 92.7V197.7C843.511 203.3 841.711 207.7 838.111 210.9C834.511 214.1 829.711 215.7 823.711 215.7C817.711 215.7 812.811 214.1 809.011 210.9C805.411 207.5 803.611 203.1 803.611 197.7V148.8H695.011V197.7C695.011 203.1 693.111 207.5 689.311 210.9C685.711 214.1 680.911 215.7 674.911 215.7ZM803.611 117.9V91.8C803.611 71.8 799.011 56.8 789.811 46.8C780.811 36.6 767.311 31.5 749.311 31.5C713.111 31.5 695.011 51.6 695.011 91.8V117.9H803.611ZM895.551 216C889.551 216 884.751 214.4 881.151 211.2C877.551 208 875.751 203.6 875.751 198V47.4C875.751 33.4 879.751 22.5 887.751 14.7C895.951 6.89999 907.251 2.99999 921.651 2.99999H972.351C1002.75 2.99999 1025.85 9.29999 1041.65 21.9C1057.45 34.5 1065.35 53 1065.35 77.4C1065.35 101.8 1057.65 120.3 1042.25 132.9C1026.85 145.5 1004.15 151.8 974.151 151.8H915.651V198C915.651 203.4 913.751 207.8 909.951 211.2C906.351 214.4 901.551 216 895.551 216ZM973.851 120.9C1008.05 120.9 1025.15 106.4 1025.15 77.4C1025.15 48.4 1008.05 33.9 973.851 33.9H928.551C924.551 33.9 921.351 35.2 918.951 37.8C916.751 40.4 915.651 44 915.651 48.6V120.9H973.851ZM1189.85 216C1170.25 216 1151.85 212.8 1134.65 206.4C1117.45 199.8 1102.55 190.4 1089.95 178.2C1086.95 175.2 1085.45 171.8 1085.45 168C1085.45 163.6 1087.45 159.4 1091.45 155.4C1094.65 152.2 1098.15 150.6 1101.95 150.6C1105.95 150.6 1110.75 152.9 1116.35 157.5C1125.75 166.1 1136.85 172.8 1149.65 177.6C1162.65 182.2 1176.05 184.5 1189.85 184.5C1203.05 184.5 1213.35 182.3 1220.75 177.9C1228.15 173.3 1231.85 166.9 1231.85 158.7C1231.85 150.1 1227.85 143.2 1219.85 138C1211.85 132.6 1198.25 127.8 1179.05 123.6C1148.85 117 1126.85 108.3 1113.05 97.5C1099.45 86.7 1092.65 72.8 1092.65 55.8C1092.65 45 1096.25 35.4 1103.45 27C1110.65 18.4 1120.65 11.8 1133.45 7.19999C1146.45 2.39999 1161.25 -1.14441e-05 1177.85 -1.14441e-05C1196.45 -1.14441e-05 1212.95 3.09999 1227.35 9.29999C1241.95 15.3 1253.05 23.8 1260.65 34.8C1263.25 39 1264.55 42.6 1264.55 45.6C1264.35 50.6 1261.85 54.9 1257.05 58.5C1254.45 60.3 1251.45 61.2 1248.05 61.2C1241.85 61.2 1236.75 58.8 1232.75 54C1226.95 47 1219.15 41.5 1209.35 37.5C1199.75 33.5 1189.25 31.5 1177.85 31.5C1163.65 31.5 1152.55 33.7 1144.55 38.1C1136.75 42.3 1132.85 48.2 1132.85 55.8C1132.85 63.4 1136.65 69.7 1144.25 74.7C1152.05 79.5 1165.45 84.1 1184.45 88.5C1205.45 93.5 1222.35 99.2 1235.15 105.6C1247.95 111.8 1257.25 119.2 1263.05 127.8C1269.05 136.4 1272.05 146.7 1272.05 158.7C1272.05 170.1 1268.65 180.2 1261.85 189C1255.05 197.6 1245.45 204.3 1233.05 209.1C1220.65 213.7 1206.25 216 1189.85 216ZM1350.61 213C1335.41 213 1323.61 209 1315.21 201C1306.81 193 1302.61 181.8 1302.61 167.4V47.4C1302.61 33.4 1306.61 22.5 1314.61 14.7C1322.81 6.89999 1334.11 2.99999 1348.51 2.99999H1441.81C1447.81 2.99999 1452.41 4.39999 1455.61 7.19999C1458.81 9.79999 1460.41 13.6 1460.41 18.6C1460.41 23.4 1458.71 27.2 1455.31 30C1452.11 32.6 1447.61 33.9 1441.81 33.9H1355.41C1351.41 33.9 1348.21 35.2 1345.81 37.8C1343.61 40.4 1342.51 44 1342.51 48.6V90.3H1419.01C1425.01 90.3 1429.61 91.7 1432.81 94.5C1436.01 97.1 1437.61 100.9 1437.61 105.9C1437.61 110.7 1435.91 114.5 1432.51 117.3C1429.31 119.9 1424.81 121.2 1419.01 121.2H1342.51V167.4C1342.51 172 1343.61 175.6 1345.81 178.2C1348.21 180.8 1351.41 182.1 1355.41 182.1H1448.41C1454.41 182.1 1459.01 183.5 1462.21 186.3C1465.41 188.9 1467.01 192.7 1467.01 197.7C1467.01 202.5 1465.31 206.3 1461.91 209.1C1458.71 211.7 1454.21 213 1448.41 213H1350.61Z" fill="#1D88D5"/>
</svg>
