<svg width="1823" height="630" viewBox="0 0 1823 630" fill="none" xmlns="http://www.w3.org/2000/svg">
<path d="M723.906 260.104H765.625L809.688 367.604H811.563L855.625 260.104H897.344V420.104H864.531V315.963H863.203L821.797 419.322H799.453L758.047 315.572H756.719V420.104H723.906V260.104ZM925.215 420.104V260.104H1033.03V287.994H959.043V326.119H1027.48V354.01H959.043V392.213H1033.34V420.104H925.215ZM1059.92 420.104V260.104H1123.05C1135.13 260.104 1145.44 262.265 1153.98 266.588C1162.58 270.859 1169.11 276.926 1173.59 284.791C1178.13 292.604 1180.39 301.796 1180.39 312.369C1180.39 322.994 1178.1 332.135 1173.52 339.791C1168.93 347.395 1162.29 353.229 1153.59 357.291C1144.95 361.354 1134.48 363.385 1122.19 363.385H1079.92V336.197H1116.72C1123.18 336.197 1128.54 335.312 1132.81 333.541C1137.08 331.77 1140.26 329.114 1142.34 325.572C1144.48 322.031 1145.55 317.63 1145.55 312.369C1145.55 307.057 1144.48 302.577 1142.34 298.932C1140.26 295.286 1137.06 292.525 1132.73 290.65C1128.46 288.723 1123.07 287.76 1116.56 287.76H1093.75V420.104H1059.92ZM1146.33 347.291L1186.09 420.104H1148.75L1109.84 347.291H1146.33ZM1338.13 260.104V420.104H1308.91L1239.3 319.4H1238.13V420.104H1204.3V260.104H1233.98L1303.05 360.729H1304.45V260.104H1338.13ZM1366.07 420.104V260.104H1399.9V392.213H1468.5V420.104H1366.07ZM1461.11 260.104H1499L1535.49 329.01H1537.05L1573.54 260.104H1611.43L1553.07 363.541V420.104H1519.47V363.541L1461.11 260.104Z" fill="#1D88D5"/>
<circle cx="413.604" cy="314.604" r="238.604" fill="#1D88D5"/>
<path d="M314.262 219.941H362.808L414.08 345.032H416.262L467.535 219.941H516.08V406.123H477.899V284.941H476.353L428.171 405.214H402.171L353.989 284.487H352.444V406.123H314.262V219.941Z" fill="white"/>
</svg>
